<svg xmlns="http://www.w3.org/2000/svg" xmlns:xlink="http://www.w3.org/1999/xlink" version="1.1" width="1000" height="1000" viewBox="0 0 1000 1000" xml:space="preserve">
<desc>Created with Fabric.js 3.5.0</desc>
<defs>
</defs>
<rect x="0" y="0" width="100%" height="100%" fill="rgba(255,255,255,0)"/>
<g transform="matrix(2.6341 0 0 2.6341 167.6071 285.8735)" id="_fclVC_gW3knTSnF4jsxLl">
<path style="stroke: none; stroke-width: 1; stroke-dasharray: none; stroke-linecap: butt; stroke-dashoffset: 0; stroke-linejoin: miter; stroke-miterlimit: 4; is-custom-font: none; font-file-url: none; fill: rgb(76,159,227); fill-rule: nonzero; opacity: 1;" transform=" translate(-46.9992, -47.7329)" d="M 53.47 19.76 l -5.28 -5.09 a 2.19 2.19 0 0 0 -3.1 0.05 L 13.93 47 a 2.19 2.19 0 0 0 0.06 3.1 L 45.79 80.8 a 2.19 2.19 0 0 0 3.1 -0.06 L 80 48.47 A 2.17 2.17 0 0 0 80 45.38 l -12 -11.64 l 8 -8.29 L 91.12 40.1 a 9.38 9.38 0 0 1 0.23 13.26 L 54.16 91.87 a 9.38 9.38 0 0 1 -13.26 0.23 l -38 -36.73 A 9.39 9.39 0 0 1 2.63 42.1 L 39.82 3.6 a 9.37 9.37 0 0 1 13.26 -0.23 l 8.39 8.1 Z" stroke-linecap="round"/>
</g>
<g transform="matrix(2.6341 0 0 2.6341 261.5824 283.9361)" id="_2yC6JlP49xF4W450B5ghS">
<path style="stroke: none; stroke-width: 1; stroke-dasharray: none; stroke-linecap: butt; stroke-dashoffset: 0; stroke-linejoin: miter; stroke-miterlimit: 4; is-custom-font: none; font-file-url: none; fill: rgb(49,106,153); fill-rule: nonzero; opacity: 1;" transform=" translate(-82.6754, -46.9975)" d="M 76.22 75 l 5.27 5.09 a 2.19 2.19 0 0 0 3.1 0 l 31.16 -32.27 a 2.19 2.19 0 0 0 -0.06 -3.1 L 83.9 13.93 a 2.19 2.19 0 0 0 -3.1 0.06 L 49.64 46.25 a 2.19 2.19 0 0 0 0 3.1 L 61.75 61 l -8 8.29 L 38.57 54.63 a 9.37 9.37 0 0 1 -0.23 -13.26 L 75.52 2.86 a 9.38 9.38 0 0 1 13.26 -0.23 l 38 36.73 a 9.38 9.38 0 0 1 0.23 13.27 L 89.87 91.13 a 9.38 9.38 0 0 1 -13.27 0.23 l -8.39 -8.1 Z" stroke-linecap="round"/>
</g>
<g transform="matrix(1 0 0 1 652.4332 276.1905)" style="" id="297256">
		
<path xml:space="preserve" font-family="Lato" font-size="158" font-style="normal" font-weight="bold" style="stroke: none; stroke-width: 1; stroke-dasharray: none; stroke-linecap: butt; stroke-dashoffset: 0; stroke-linejoin: miter; stroke-miterlimit: 4; is-custom-font: none; font-file-url: none; fill: rgb(0,0,0); fill-rule: nonzero; opacity: 1; white-space: pre;" d="M-171.11-64.60L-126.24 49.63L-142.67 49.63Q-145.44 49.63-147.22 48.25Q-148.99 46.87-149.78 44.82L-149.78 44.82L-158.32 21.51L-205.64 21.51L-214.17 44.82Q-214.80 46.63-216.66 48.13Q-218.51 49.63-221.20 49.63L-221.20 49.63L-237.71 49.63L-192.84-64.60L-171.11-64.60ZM-186.28-31.34L-200.19 6.50L-163.77 6.50L-177.67-31.50Q-178.62-34.03-179.76-37.46Q-180.91-40.90-182.02-44.93L-182.02-44.93Q-183.12-40.90-184.19-37.42Q-185.25-33.95-186.28-31.34L-186.28-31.34ZM-39.97 22.70L-39.97 22.70Q-38.24 22.70-36.97 24.04L-36.97 24.04L-28.60 33.12Q-35.55 41.73-45.70 46.32Q-55.85 50.90-70.07 50.90L-70.07 50.90Q-82.79 50.90-92.94 46.55Q-103.09 42.21-110.28 34.47Q-117.47 26.72-121.30 15.98Q-125.14 5.24-125.14-7.48L-125.14-7.48Q-125.14-20.36-120.87-31.06Q-116.60-41.77-108.86-49.51Q-101.12-57.25-90.34-61.56Q-79.55-65.86-66.52-65.86L-66.52-65.86Q-53.80-65.86-44.28-61.80Q-34.76-57.73-27.97-51.01L-27.97-51.01L-35.08-41.14Q-35.71-40.19-36.70-39.48Q-37.68-38.77-39.42-38.77L-39.42-38.77Q-41.24-38.77-43.13-40.19Q-45.03-41.61-47.95-43.27Q-50.88-44.93-55.34-46.35Q-59.80-47.77-66.68-47.77L-66.68-47.77Q-74.73-47.77-81.49-44.97Q-88.24-42.16-93.10-36.95Q-97.96-31.74-100.69-24.27Q-103.41-16.80-103.41-7.48L-103.41-7.48Q-103.41 2.16-100.69 9.66Q-97.96 17.17-93.30 22.30Q-88.64 27.44-82.32 30.16Q-76.00 32.89-68.73 32.89L-68.73 32.89Q-64.38 32.89-60.87 32.41Q-57.35 31.94-54.39 30.91Q-51.43 29.88-48.78 28.26Q-46.14 26.65-43.53 24.28L-43.53 24.28Q-42.74 23.56-41.87 23.13Q-41.00 22.70-39.97 22.70ZM-12.56-64.60L59.49-64.60L59.49-47.69L8.85-47.69L8.85-16.01L48.74-16.01L48.74 0.34L8.85 0.34L8.85 32.65L59.49 32.65L59.49 49.63L-12.56 49.63L-12.56-64.60ZM132.33-64.60L132.33 49.63L111.00 49.63L111.00-64.60L132.33-64.60ZM148.36-64.60L238.50-64.60L238.50-47.14L204.14-47.14L204.14 49.63L182.88 49.63L182.88-47.14L148.36-47.14L148.36-64.60Z"/></g>
</svg>